Coordinates
version=1
nRows=17
nColumns=33
inDegrees=yes

Units are S.I. units (second, meters, Newtons, ...)
Angles are in degrees.

endheader
time	ground_thorax_rot_x	ground_thorax_rot_y	ground_thorax_rot_z	ground_thorax_tx	ground_thorax_ty	ground_thorax_tz	clav_prot_r	clav_elev_r	scapula_abduction_r	scapula_elevation_r	scapula_upward_rot_r	scapula_winging_r	shoulder_elv_r	plane_of_elev_r	axial_rot_r	elbow_flexion_r	pro_sup_r	wrist_flex_r	wrist_dev_r	clav_prot_l	clav_elev_l	scapula_abduction_l	scapula_elevation_l	scapula_upward_rot_l	scapula_winging_l	shoulder_elv_l	plane_of_elev_l	axial_rot_l	elbow_flexion_l	pro_sup_l	wrist_flex_l	wrist_dev_l
      7.85000000	    -25.89083116	    -35.04159085	     52.18677419	    -65.50859941	    787.60898517	     -3.68858505	      6.63644410	    -45.00000000	     35.18896003	    -45.00000000	    -45.00000000	  -2254.63320768	  -2638.67881748	    151.62075772	   -106.26354249	   1091.09111817	   -327.42068637	     17.02198071	     10.53707063	     14.75763191	     37.60843253	    -29.91951416	    -45.00000000	    -45.00000000	   2234.34143266	  -2620.01471788	    136.29439549	   -179.99999979	   -354.91538073	    403.71846014	     10.24731742	    -20.68937123
      7.86000000	    -25.73309725	    -35.05626190	     52.33212303	    -65.63173783	    787.34893937	     -4.00077413	      6.39038010	    -45.00000000	     35.32082960	    -45.00000000	    -45.00000000	  -2254.58324430	  -2638.62197883	    151.78008076	   -106.78920133	   1091.01659898	   -327.25728231	     17.22323348	     10.52505386	     15.00811046	     37.70584827	    -29.79270538	    -45.00000000	    -45.00000000	   2234.26123111	  -2620.02588330	    136.37843046	   -179.99999979	   -355.04811118	    403.87754258	      9.95817626	    -21.02887889
      7.87000000	    -25.86635193	    -34.87251834	     52.17186471	    -65.87533480	    787.05755872	     -4.35956054	      6.53739156	    -45.00000000	     35.16951535	    -45.00000000	    -45.00000000	  -2254.60859922	  -2638.76461377	    151.59853834	   -107.20547409	   1090.92876674	   -326.91746430	     17.14515729	     10.59761080	     14.79110573	     37.62387613	    -29.87584942	    -45.00000000	    -45.00000000	   2234.29797220	  -2619.98351264	    136.27990012	   -179.99999979	   -355.05044566	    404.37085516	     10.04506320	    -21.08731456
      7.88000000	    -25.73260589	    -34.81254321	     52.40986379	    -66.26532872	    786.76448116	     -4.73569593	      6.37654189	    -45.00000000	     35.00549309	    -45.00000000	    -45.00000000	  -2254.65438988	  -2638.67197429	    151.72700655	   -107.71599042	   1090.90585845	   -326.54948885	     17.30981388	     10.50784354	     14.98367680	     37.77996097	    -29.69963279	    -45.00000000	    -45.00000000	   2234.28341338	  -2619.92838193	    136.24687068	   -179.99999979	   -355.07725436	    404.92319650	      9.63116185	    -21.56489334
      7.89000000	    -25.96953568	    -34.68755762	     51.96917488	    -66.77586900	    786.46908548	     -5.11525273	      6.52935692	    -45.00000000	     35.18754430	    -45.00000000	    -45.00000000	  -2254.65242474	  -2638.77776720	    151.48400645	   -107.84679639	   1091.03663246	   -326.08435378	     17.24751908	     10.66225296	     14.77549565	     37.57164835	    -29.95156291	    -45.00000000	    -45.00000000	   2234.49051928	  -2619.90940737	    136.24147850	   -179.99999979	   -354.97583357	    405.82247446	      9.69869347	    -21.64080366
      7.90000000	    -25.80163703	    -34.76310467	     52.18574868	    -67.38743823	    786.16858523	     -5.47581344	      6.32990852	    -45.00000000	     35.10703827	    -45.00000000	    -45.00000000	  -2254.52641058	  -2638.60347853	    151.62066307	   -108.19550108	   1091.03284572	   -325.64416713	     17.42342920	     10.49580965	     15.01044842	     37.84988835	    -29.74643779	    -45.00000000	    -45.00000000	   2234.44433345	  -2619.76148496	    136.34115729	   -179.99999979	   -355.14228068	    406.78497977	      9.17700559	    -22.14194913
      7.91000000	    -26.05234312	    -34.58019245	     51.86086336	    -68.02777373	    785.85011385	     -5.80569096	      6.51841077	    -45.00000000	     35.08005299	    -45.00000000	    -45.00000000	  -2254.72898280	  -2638.73278853	    151.32851632	   -108.23946496	   1091.18492664	   -325.21644602	     17.33574670	     10.67029356	     14.79716873	     37.59890033	    -29.95568127	    -45.00000000	    -45.00000000	   2234.66011787	  -2619.73651600	    136.20654704	   -179.99999979	   -355.01812139	    407.89034477	      9.19596524	    -22.24310371
      7.92000000	    -25.87735089	    -34.65679445	     52.06604689	    -68.67209935	    785.52544377	     -6.07302460	      6.31366653	    -45.00000000	     35.10376958	    -45.00000000	    -45.00000000	  -2254.54565718	  -2638.52673787	    151.60411691	   -108.54216516	   1091.18270462	   -324.86829460	     17.51103236	     10.44677353	     15.02579697	     37.91826331	    -29.76083031	    -45.00000000	    -45.00000000	   2234.57528747	  -2619.61210561	    136.38611556	   -179.99999979	   -355.04289691	    408.93509554	      8.68002106	    -22.61732004
      7.93000000	    -26.13665279	    -34.49565566	     51.70666539	    -69.30090191	    785.20313950	     -6.26514378	      6.52388693	    -45.00000000	     35.09616170	    -45.00000000	    -45.00000000	  -2254.76826572	  -2638.69076778	    151.26734149	   -108.50789072	   1091.29874817	   -324.52977050	     17.40771942	     10.70203102	     14.82129991	     37.58522783	    -29.97924197	    -45.00000000	    -45.00000000	   2234.82408027	  -2619.63675621	    136.19820302	   -179.99999979	   -354.94000484	    410.02365154	      8.73149673	    -22.63995316
      7.94000000	    -25.97287335	    -34.57824247	     51.93184051	    -69.90739050	    784.88570519	     -6.38787602	      6.31728958	    -45.00000000	     35.11618978	    -45.00000000	    -45.00000000	  -2254.59067713	  -2638.41807821	    151.56358440	   -108.71170439	   1091.31555447	   -324.30976045	     17.55660641	     10.39234860	     15.02988739	     37.97054993	    -29.79588752	    -45.00000000	    -45.00000000	   2234.69162070	  -2619.47291729	    136.42170251	   -179.99999979	   -354.89325196	    410.89059539	      8.28811351	    -22.87349247
      7.95000000	    -26.25869575	    -34.43902562	     51.52794614	    -70.48643206	    784.57599466	     -6.45969369	      6.54728823	    -45.00000000	     35.12135487	    -45.00000000	    -45.00000000	  -2254.86065389	  -2638.67943127	    151.20508765	   -108.59026466	   1091.45997855	   -324.08752044	     17.45961785	     10.73594082	     14.82428095	     37.52392091	    -30.01863582	    -45.00000000	    -45.00000000	   2235.01659915	  -2619.57876472	    136.13901768	   -179.99999979	   -354.79957885	    411.70520578	      8.41031614	    -22.82049754
      7.96000000	    -26.02502955	    -34.55290943	     51.81248843	    -71.04010916	    784.27765178	     -6.50164506	      6.30968033	    -45.00000000	     35.09997602	    -45.00000000	    -45.00000000	  -2254.61306060	  -2638.34829740	    151.58865859	   -108.79262095	   1091.43768844	   -323.97513332	     17.58670621	     10.28568045	     15.04460366	     38.06390282	    -29.75957280	    -45.00000000	    -45.00000000	   2234.70250873	  -2619.43064308	    136.50665121	   -179.99999979	   -354.75239182	    412.27110161	      8.03498801	    -22.98055330
      7.97000000	    -26.36094954	    -34.39994260	     51.35267327	    -71.57043500	    783.99522078	     -6.53326261	      6.58781285	    -45.00000000	     35.15631879	    -45.00000000	    -45.00000000	  -2254.95935052	  -2638.64989886	    151.11524730	   -108.60757487	   1091.54099889	   -323.80806199	     17.48463705	     10.79726924	     14.81478100	     37.41140606	    -30.06548076	    -45.00000000	    -45.00000000	   2235.22506086	  -2619.56113395	    136.03518752	   -179.99999979	   -354.76212130	    412.80801316	      8.24545937	    -22.86634047
      7.98000000	    -26.17675882	    -34.46575941	     51.58745477	    -72.08420694	    783.73195862	     -6.56426380	      6.45002698	    -45.00000000	     35.17046557	    -45.00000000	    -45.00000000	  -2254.79076931	  -2638.41585004	    151.45532735	   -108.79465775	   1091.53033052	   -323.71118015	     17.57811481	     10.44007315	     15.01104291	     37.78754124	    -29.89516425	    -45.00000000	    -45.00000000	   2235.03351136	  -2619.45458761	    136.31089212	   -179.99999979	   -354.62019237	    413.15638415	      7.97425614	    -22.96589754
      7.99000000	    -26.30991423	    -34.35079301	     51.40382370	    -72.57781482	    783.49681828	     -6.59435693	      6.50699520	    -45.00000000	     35.10577397	    -45.00000000	    -45.00000000	  -2254.91486761	  -2638.40816521	    151.27433267	   -108.75537894	   1091.58348290	   -323.59691696	     17.52923689	     10.47489926	     14.86622249	     37.78510486	    -29.96920108	    -45.00000000	    -45.00000000	   2235.01645335	  -2619.39696922	    136.31088234	   -179.99999979	   -354.57337363	    413.38006560	      8.04505350	    -22.90768385
      8.00000000	    -26.25945401	    -34.40171160	     51.44991725	    -73.05660940	    783.29279622	     -6.61624696	      6.43195050	    -45.00000000	     35.13113731	    -45.00000000	    -45.00000000	  -2254.86548118	  -2638.32668737	    151.39569541	   -108.82944015	   1091.63992139	   -323.49989922	     17.60051099	     10.33124827	     15.01361115	     37.80010534	    -29.90386114	    -45.00000000	    -45.00000000	   2235.14378824	  -2619.44749098	    136.27191123	   -179.99999979	   -354.55647353	    413.42093924	      7.95048144	    -22.87898988
      8.01000000	    -26.44049647	    -34.21462425	     51.29418480	    -73.51293541	    783.12330405	     -6.61835216	      6.59560709	    -45.00000000	     34.93466686	    -45.00000000	    -45.00000000	  -2255.17773547	  -2638.33623287	    151.15768714	   -108.79220735	   1091.78025654	   -323.38043722	     17.55917145	     10.43837136	     14.84153913	     37.79587164	    -29.99194619	    -45.00000000	    -45.00000000	   2235.11680244	  -2619.34828628	    136.31104437	   -179.99999979	   -354.19238177	    413.30986263	      8.08069894	    -22.80127153
